<svg width="32" height="32" viewBox="0 0 32 32" fill="none" xmlns="http://www.w3.org/2000/svg">
<path fill-rule="evenodd" clip-rule="evenodd" d="M15.9999 6.28516C16.9467 6.28516 17.7142 7.05268 17.7142 7.99944V16.1717L22.5962 19.1009C23.4082 19.588 23.6712 20.641 23.1842 21.4529C22.6971 22.2647 21.6441 22.528 20.8322 22.0409L15.1179 18.6123C14.6016 18.3025 14.2856 17.7445 14.2856 17.1423V7.99944C14.2856 7.05268 15.0532 6.28516 15.9999 6.28516Z" fill="#8975DB"/>
<path fill-rule="evenodd" clip-rule="evenodd" d="M3.42857 16C3.42857 9.05698 9.05698 3.42857 16 3.42857C20.0019 3.42857 23.5691 5.29819 25.8727 8.21614L23.6654 10.4236C22.9454 11.1436 23.4553 12.3746 24.4734 12.3746H30.8571C31.4882 12.3746 32 11.8629 32 11.2318V4.848C32 3.82983 30.7689 3.31993 30.0489 4.03989L28.3099 5.77895C25.3765 2.24983 20.9519 0 16 0C7.16345 0 0 7.16345 0 16C0 24.8366 7.16345 32 16 32C23.568 32 29.9049 26.7474 31.5719 19.6908C31.7895 18.7694 31.219 17.846 30.2976 17.6283C29.3762 17.4107 28.4528 17.9812 28.235 18.9026C26.9255 24.4469 21.9423 28.5714 16 28.5714C9.05698 28.5714 3.42857 22.9431 3.42857 16Z" fill="url(#paint0_linear_71_942)"/>
<defs>
<linearGradient id="paint0_linear_71_942" x1="16" y1="0" x2="16" y2="32" gradientUnits="userSpaceOnUse">
<stop stop-color="#9738E2"/>
<stop offset="0.453125" stop-color="#4C5FE6" stop-opacity="0.5"/>
<stop offset="0.760417" stop-color="#2176E7" stop-opacity="0.216667"/>
<stop offset="1" stop-color="#0D5081"/>
</linearGradient>
</defs>
</svg>
