<svg width="32" height="32" viewBox="0 0 32 32" fill="none" xmlns="http://www.w3.org/2000/svg">
<path d="M13.7143 25.1423C20.0262 25.1423 25.1429 20.0256 25.1429 13.7137C25.1429 7.4019 20.0262 2.28516 13.7143 2.28516C7.40251 2.28516 2.28577 7.4019 2.28577 13.7137C2.28577 20.0256 7.40251 25.1423 13.7143 25.1423Z" fill="url(#paint0_linear_71_934)"/>
<path fill-rule="evenodd" clip-rule="evenodd" d="M4.57143 13.7143C4.57143 8.66482 8.66482 4.57143 13.7143 4.57143C18.7637 4.57143 22.8571 8.66482 22.8571 13.7143C22.8571 18.7638 18.7637 22.8571 13.7143 22.8571C8.66482 22.8571 4.57143 18.7638 4.57143 13.7143ZM13.7143 0C6.14009 0 0 6.14009 0 13.7143C0 21.2885 6.14009 27.4286 13.7143 27.4286C16.6761 27.4286 19.4186 26.4896 21.6604 24.8933L28.0981 31.331C28.9906 32.2235 30.4379 32.2235 31.3305 31.331C32.2231 30.4384 32.2231 28.9911 31.3305 28.0985L24.893 21.6609C26.4896 19.419 27.4286 16.6763 27.4286 13.7143C27.4286 6.14009 21.2885 0 13.7143 0Z" fill="url(#paint1_linear_71_934)"/>
<defs>
<linearGradient id="paint0_linear_71_934" x1="13.7143" y1="2.28516" x2="13.7143" y2="25.1423" gradientUnits="userSpaceOnUse">
<stop stop-color="#9738E2"/>
<stop offset="0.453125" stop-color="#4C5FE6" stop-opacity="0.5"/>
<stop offset="0.760417" stop-color="#2176E7" stop-opacity="0.216667"/>
<stop offset="1" stop-color="#0D5081"/>
</linearGradient>
<linearGradient id="paint1_linear_71_934" x1="16" y1="0" x2="16" y2="32.0004" gradientUnits="userSpaceOnUse">
<stop stop-color="#9738E2"/>
<stop offset="0.453125" stop-color="#4C5FE6" stop-opacity="0.5"/>
<stop offset="0.760417" stop-color="#2176E7" stop-opacity="0.216667"/>
<stop offset="1" stop-color="#0D5081"/>
</linearGradient>
</defs>
</svg>
